<?xml version="1.0" encoding="iso-8859-1"?>
<!-- Generator: Adobe Illustrator 18.0.0, SVG Export Plug-In . SVG Version: 6.00 Build 0)  -->
<!DOCTYPE svg PUBLIC "-//W3C//DTD SVG 1.1//EN" "http://www.w3.org/Graphics/SVG/1.1/DTD/svg11.dtd">
<svg version="1.1" id="Layer_1" xmlns="http://www.w3.org/2000/svg" xmlns:xlink="http://www.w3.org/1999/xlink" x="0px" y="0px"
	 viewBox="0 0 42.593 43.543" style="enable-background:new 0 0 42.593 43.543;" xml:space="preserve">
<g>
	<g>
		<g>
			<path style="fill:#323232;" d="M21.5,8.784L34,15.989v11.583l-12.559,7.24L9,27.641V15.989L21.5,8.784 M21.5,5.298L6,14.278
				v15.073l15.441,8.947L37,29.283V14.278L21.5,5.298L21.5,5.298z"/>
		</g>
	</g>
	<g>
		<g>
			<path style="fill:#323232;" d="M42.593,10.414"/>
		</g>
	</g>
	<g>
		<g>
			<polygon style="fill:#323232;" points="42,18.825 39,18.825 39,12.652 34.293,9.683 35.893,7.146 42,10.998 			"/>
		</g>
	</g>
	<g>
		<g>
			<path style="fill:#323232;stroke:#010101;stroke-miterlimit:10;" d="M11.051,32.961"/>
		</g>
	</g>
	<g>
		<g>
			
				<rect x="26.421" y="36.73" transform="matrix(0.5001 0.866 -0.866 0.5001 48.9502 -3.9786)" style="fill:#323232;" width="3" height="7.352"/>
		</g>
	</g>
	<g>
		<g>
			
				<rect x="29.604" y="4.477" transform="matrix(0.845 0.5348 -0.5348 0.845 8.0175 -15.7068)" style="fill:#323232;" width="3" height="3"/>
		</g>
	</g>
	<g>
		<g>
			
				<rect x="37.297" y="32.461" transform="matrix(-0.8742 0.4856 -0.4856 -0.8742 89.2031 44.81)" style="fill:#323232;" width="3" height="3"/>
		</g>
	</g>
	<g>
		<g>
			<polygon style="fill:#323232;" points="6.106,36.467 0,32.614 0,24.825 3,24.825 3,30.96 7.708,33.93 			"/>
		</g>
	</g>
	<g>
		<g>
			<rect x="0.014" y="18.303" style="fill:#323232;" width="3.045" height="3.045"/>
		</g>
	</g>
	<g>
		<g>
			
				<rect x="13.961" y="-1.03" transform="matrix(0.5013 0.8653 -0.8653 0.5013 10.8579 -11.5641)" style="fill:#323232;" width="3" height="9.335"/>
		</g>
	</g>
</g>
</svg>
