<?xml version="1.0" encoding="iso-8859-1"?>
<!-- Generator: Adobe Illustrator 18.0.0, SVG Export Plug-In . SVG Version: 6.00 Build 0)  -->
<!DOCTYPE svg PUBLIC "-//W3C//DTD SVG 1.1//EN" "http://www.w3.org/Graphics/SVG/1.1/DTD/svg11.dtd">
<svg version="1.1" id="Layer_1" xmlns="http://www.w3.org/2000/svg" xmlns:xlink="http://www.w3.org/1999/xlink" x="0px" y="0px"
	 viewBox="0 0 43.204 26.927" style="enable-background:new 0 0 43.204 26.927;" xml:space="preserve">
<g id="old_shuffle">
	<path style="fill:#323232;" d="M0,23.676c6.719,0,10.179-2.98,13.843-8.253c3.785-5.448,8.076-11.624,16.471-11.624
		c0.851,0,1.541,0.69,1.541,1.541s-0.69,1.541-1.541,1.541c-6.784,0-10.26,5.003-13.94,10.3C12.419,22.872,8.33,26.757,0,26.757"/>
	<g>
		<path style="fill:#323232;" d="M30.314,21.055c-4.825,0-7.976-2.693-10.725-6.263c-0.624,0.834-1.243,1.711-1.872,2.615
			c3.066,3.791,6.813,6.729,12.597,6.729c0.851,0,1.541-0.69,1.541-1.541S31.165,21.055,30.314,21.055z"/>
		<path style="fill:#323232;" d="M0,3.082c6.695,0,10.156,3.251,13.822,8.81c0.161,0.244,0.322,0.488,0.483,0.731
			c0.624-0.866,1.28-1.74,1.981-2.591C12.367,4.087,8.278,0,0,0"/>
	</g>
	<g>
		<path style="fill:#323232;" d="M29.645,0.427v9.501l13.559-4.672L29.645,0.427z"/>
	</g>
	<g>
		<path style="fill:#323232;" d="M29.645,17.427v9.501l13.559-4.672L29.645,17.427z"/>
	</g>
</g>
</svg>
