<?xml version="1.0" encoding="iso-8859-1"?>
<!-- Generator: Adobe Illustrator 18.0.0, SVG Export Plug-In . SVG Version: 6.00 Build 0)  -->
<!DOCTYPE svg PUBLIC "-//W3C//DTD SVG 1.1//EN" "http://www.w3.org/Graphics/SVG/1.1/DTD/svg11.dtd">
<svg version="1.1" id="Layer_1" xmlns="http://www.w3.org/2000/svg" xmlns:xlink="http://www.w3.org/1999/xlink" x="0px" y="0px"
	 viewBox="0 0 100 100" style="enable-background:new 0 0 100 100;" xml:space="preserve">
<g>
	<path style="fill:none;stroke:#323232;stroke-width:3;stroke-miterlimit:10;" d="M-573.5,36.126v28.77l41.059-14.149L-573.5,36.126
		z"/>
</g>
<g>
	<g>
		<path style="fill:#323232;" d="M-444.095,50.77L-397,34v33L-444.095,50.77z M-435.022,50.724L-400,62.793v-24.54L-435.022,50.724z
			"/>
	</g>
</g>
<g>
	<g>
		<path style="fill:#323232;" d="M-462.095,50.77L-415,34v33L-462.095,50.77z M-453.022,50.724L-418,62.793v-24.54L-453.022,50.724z
			"/>
	</g>
</g>
<g>
	<g>
		<path style="fill:#323232;" d="M-343,67V34l47.095,16.77L-343,67z M-340,38.253v24.54l35.022-12.069L-340,38.253z"/>
	</g>
</g>
<g>
	<g>
		<path style="fill:#323232;" d="M-325,67V34l47.095,16.77L-325,67z M-322,38.253v24.54l35.022-12.069L-322,38.253z"/>
	</g>
</g>
<path style="display:none;fill:#323232;" d="M-288.455,49.25l-28.542-10.164c-0.459-0.164-0.971-0.094-1.367,0.188
	C-318.763,39.555-319,40.012-319,40.5v2.859l-11.997-4.272c-0.459-0.164-0.971-0.094-1.367,0.188
	C-332.763,39.555-333,40.012-333,40.5v20c0,0.485,0.234,0.94,0.629,1.221c0.258,0.184,0.562,0.279,0.871,0.279
	c0.164,0,0.329-0.027,0.488-0.082l12.012-4.14V60.5c0,0.485,0.234,0.94,0.629,1.221c0.258,0.184,0.562,0.279,0.871,0.279
	c0.164,0,0.329-0.027,0.488-0.082l28.542-9.836c0.603-0.208,1.009-0.773,1.012-1.41S-287.854,49.464-288.455,49.25z M-330,58.396
	v-15.77l11,3.917v8.062L-330,58.396z M-316,47.612l8.506,3.029L-316,53.572V47.612z M-316,58.396v-1.652l13.53-4.663
	c0.603-0.208,1.009-0.773,1.012-1.41s-0.396-1.207-0.997-1.421L-316,44.427v-1.801l22.506,8.014L-316,58.396z"/>
<image style="display:none;overflow:visible;" width="117" height="80" xlink:href="27751B2FD2E03A1A.jpg"  transform="matrix(0.24 0 0 0.24 42.6667 -30.5)">
</image>
<image style="display:none;overflow:visible;" width="142" height="130" xlink:href="27751B2FD2E03A1E.jpg"  transform="matrix(0.24 0 0 0.24 0 -41)">
</image>
<image style="display:none;overflow:visible;" width="126" height="92" xlink:href="27751B2FD2E03A19.jpg"  transform="matrix(0.24 0 0 0.24 -80 -32.96)">
</image>
<image style="display:none;overflow:visible;" width="142" height="138" xlink:href="27751B2FD2E03A1B.jpg"  transform="matrix(0.24 0 0 0.24 -120 -44)">
</image>
<image style="display:none;overflow:visible;" width="175" height="146" xlink:href="27751B2FD2E03A18.jpg"  transform="matrix(0.24 0 0 0.24 -240 -45)">
</image>
<image style="display:none;overflow:visible;" width="101" height="95" xlink:href="27751B2FD2E03A26.jpg"  transform="matrix(0.24 0 0 0.24 156.4078 -35.1071)">
</image>
<image style="display:none;overflow:visible;" width="125" height="107" xlink:href="27751B2FD2E03A29.jpg"  transform="matrix(0.24 0 0 0.24 120 -38.1739)">
</image>
<image style="display:none;overflow:visible;" width="140" height="125" xlink:href="27751B2FD2E03A2A.jpg"  transform="matrix(0.24 0 0 0.24 186.5049 -42.4657)">
</image>
<image style="display:none;overflow:visible;" width="175" height="143" xlink:href="27751B2FD2E03A28.jpg"  transform="matrix(0.24 0 0 0.24 -192.6667 -45)">
</image>
<g style="display:none;">
	<path style="display:inline;fill:none;stroke:#323232;stroke-width:3;stroke-linecap:square;stroke-miterlimit:10;" d="
		M-169.734,34.988c5.72,0,10.357,6.716,10.357,15s-4.637,15-10.357,15"/>
	<path style="display:inline;fill:none;stroke:#323232;stroke-width:3;stroke-linecap:square;stroke-miterlimit:10;" d="
		M-173.008,39.988c3.813,0,6.905,4.477,6.905,10s-3.091,10-6.905,10"/>
	<path style="display:inline;fill:none;stroke:#323232;stroke-width:3;stroke-linecap:square;stroke-miterlimit:10;" d="
		M-177.282,44.988c1.907,0,3.452,2.239,3.452,5s-1.546,5-3.452,5"/>
</g>
<g>
	<g>
		<path style="fill:#323232;" d="M-205.353,61.684l-11.583-5.3V43.626l11.583-5.114V61.684z M-213.864,54.262l5.44,2.343V43.544
			l-5.44,2.183V54.262z"/>
	</g>
	<g>
		<g>
			<path style="fill:#323232;" d="M-187,68.654l-16-6.815V38.323l16-7.001V68.654z M-200,59.856l10,4.259V35.909l-10,4.376V59.856z"
				/>
		</g>
	</g>
	<path style="fill:#323232;" d="M-182.468,46c0.922,0,1.952,1.497,1.952,3.5c0,2.003-1.03,3.5-1.952,3.5h-1.279l2.136,2.9
		c2.354-0.519,4.095-3.141,4.095-6.4c0-2.95-1.425-5.381-3.441-6.202l-1.99,2.702H-182.468z"/>
	<path style="fill:#323232;" d="M-178.194,41c2.93,0,5.404,3.893,5.404,8.5s-2.475,8.5-5.404,8.5h-1.871l2.194,2.978
		c4.556-0.227,8.081-5.18,8.081-11.478c0-5.952-3.147-10.703-7.337-11.402L-179.264,41H-178.194z"/>
	<path style="fill:#323232;" d="M-174.92,36c4.884,0,8.856,6.056,8.856,13.5c0,7.444-3.973,13.5-8.856,13.5H-176v0.265l1.884,2.685
		c6.206-0.517,11.098-7.687,11.098-16.45c0-8.414-4.575-15.364-10.43-16.364L-175.581,36H-174.92z"/>
</g>
<image style="display:none;overflow:visible;" width="117" height="109" xlink:href="B3ECEDE97A68661D.jpg"  transform="matrix(0.24 0 0 0.24 -44.3333 -34.92)">
</image>
<g style="display:none;">
	
		<line style="display:inline;fill:none;stroke:#323232;stroke-width:3;stroke-miterlimit:10;" x1="-87" y1="49.5" x2="-83" y2="49.5"/>
	
		<line style="display:inline;fill:none;stroke:#323232;stroke-width:3;stroke-miterlimit:10;" x1="-87" y1="40.5" x2="-83" y2="40.5"/>
	
		<line style="display:inline;fill:none;stroke:#323232;stroke-width:3;stroke-miterlimit:10;" x1="-87" y1="59.5" x2="-83" y2="59.5"/>
</g>
<g>
	<g>
		<rect x="-80.5" y="48.5" style="fill:#323232;stroke:#323232;stroke-miterlimit:10;" width="25" height="3"/>
	</g>
	<g>
		<rect x="-80.5" y="37.5" style="fill:#323232;stroke:#323232;stroke-miterlimit:10;" width="25" height="3"/>
	</g>
	<g>
		<rect x="-80.5" y="60.5" style="fill:#323232;stroke:#323232;stroke-miterlimit:10;" width="25" height="3"/>
	</g>
	<g>
		<path style="fill:#323232;stroke:#323232;stroke-miterlimit:10;" d="M-89.5,36.761v3.5l4.995-1.721L-89.5,36.761z"/>
	</g>
	<g>
		<path style="fill:#323232;stroke:#323232;stroke-miterlimit:10;" d="M-89.5,47.761v3.5l4.995-1.721L-89.5,47.761z"/>
	</g>
	<g>
		<path style="fill:#323232;stroke:#323232;stroke-miterlimit:10;" d="M-89.5,59.761v3.5l4.995-1.721L-89.5,59.761z"/>
	</g>
</g>
<g id="shuffle" style="display:none;">
	<path style="display:inline;fill:#323232;" d="M59,120v1.621c0,0.299,0.04,0.579,0.283,0.753c0.159,0.113,0.294,0.172,0.485,0.172
		c0.101,0,0.177-0.017,0.275-0.051l17.578-6.062c0.371-0.128,0.615-0.476,0.617-0.869c0.002-0.393-0.248-0.744-0.618-0.876
		l-17.592-6.264c-0.283-0.101-0.494-0.058-0.739,0.116c-0.246,0.173-0.288,0.455-0.288,0.755V111 M59,113v5 M61,113.677l5.242,1.867
		L61,117.351V113.677z M61,120.324v-1.018l8.159-2.874c0.371-0.128,0.532-0.476,0.533-0.869c0.002-0.393-0.109-0.744-0.479-0.876
		L61,111.715v-1.11l13.871,4.939L61,120.324z"/>
	<path style="display:inline;fill:#323232;" d="M59,137v1.771c0,0.299,0.04,0.579,0.283,0.753c0.159,0.113,0.294,0.172,0.485,0.172
		c0.101,0,0.177-0.017,0.275-0.051l17.578-6.062c0.371-0.128,0.615-0.476,0.617-0.869c0.002-0.393-0.248-0.744-0.618-0.876
		l-17.592-6.264c-0.283-0.101-0.494-0.058-0.739,0.116c-0.246,0.173-0.288,0.455-0.288,0.755V128 M59,130v5 M61,130.828l5.242,1.867
		L61,134.501V130.828z M61,137.475v-1.018l8.159-2.874c0.371-0.128,0.532-0.476,0.533-0.869c0.002-0.393-0.109-0.744-0.479-0.876
		L61,128.865v-1.11l13.871,4.939L61,137.475z"/>
	<path style="display:inline;fill:#323232;" d="M28.355,138.745c-0.851,0-1.541-0.69-1.541-1.541s0.69-1.541,1.541-1.541
		c6.719,0,10.179-4.98,13.843-10.253c3.785-5.448,8.076-11.624,16.471-11.624c0.851,0,1.541,0.69,1.541,1.541
		s-0.69,1.541-1.541,1.541c-6.784,0-10.26,5.003-13.94,10.3C40.774,132.86,36.685,138.745,28.355,138.745z"/>
	<g style="display:inline;">
		<path style="fill:#323232;" d="M58.669,131.043c-4.825,0-7.976-2.693-10.725-6.263c-0.624,0.834-1.243,1.711-1.872,2.615
			c3.066,3.791,6.813,6.729,12.597,6.729c0.851,0,1.541-0.69,1.541-1.541S59.52,131.043,58.669,131.043z"/>
		<path style="fill:#323232;" d="M28.355,111.069c6.695,0,10.156,5.251,13.822,10.81c0.161,0.244,0.322,0.488,0.483,0.731
			c0.624-0.866,1.28-1.74,1.981-2.591c-3.92-5.944-8.009-12.032-16.286-12.032c-0.851,0-1.541,0.69-1.541,1.541
			C26.814,110.38,27.504,111.069,28.355,111.069z"/>
	</g>
</g>
<path style="display:none;fill:none;stroke:#323232;stroke-width:3;stroke-miterlimit:10;" d="M7.307,133.5
	c-31.307,0-13.296-22-43.301-22H-40"/>
<g style="display:none;">
	<path style="display:inline;fill:#323232;" d="M0,128.117v9.501l13.559-4.673L0,128.117z"/>
</g>
<g style="display:none;">
	<path style="display:inline;fill:none;stroke:#323232;stroke-width:3;stroke-miterlimit:10;" d="M64,199.262l13.559-4.672
		L64,189.761"/>
</g>
<line style="display:none;fill:none;stroke:#323232;stroke-width:3;stroke-miterlimit:10;" x1="74" y1="233.5" x2="24" y2="233.5"/>
<g style="display:none;">
	<path style="display:inline;fill:none;stroke:#323232;stroke-width:3;stroke-miterlimit:10;" d="M64,245.095l13.559-11.394
		L64,221.928"/>
</g>
<g style="display:none;">
	<rect x="24" y="213" style="display:inline;fill:#323232;" width="50" height="3"/>
</g>
<polygon style="display:none;fill:#323232;" points="65.315,208.348 65,208.707 65,211.486 73.647,214.565 65,217.546 65,220.351 
	65.301,220.68 82.907,214.612 "/>
<path style="display:none;fill:none;stroke:#323232;stroke-width:3;stroke-miterlimit:10;" d="M-40,133.5h3.994
	c29.994,0,12.006-22,43.301-22"/>
<g style="display:none;">
	<g style="display:inline;">
		<rect x="175" y="32" style="fill:#323232;" width="4" height="29"/>
	</g>
	<g style="display:inline;">
		<rect x="159" y="32" style="fill:#323232;" width="4" height="29"/>
	</g>
	<g style="display:inline;">
		<path style="fill:#323232;stroke:#323232;stroke-miterlimit:10;" d="M170,16.164l28.5,16.511v27.586l-28.609,16.574L141.5,60.387
			V32.675L170,16.164 M170,14.535l-30.5,17.326v29.341l30.391,17.263L200.5,61.076V31.861L170,14.535L170,14.535z"/>
	</g>
</g>
<g>
	<path style="fill:#323232;" d="M162,36.5v27h-6v-27H162 M165,33.5h-12v33h12V33.5L165,33.5z"/>
</g>
<g>
	<path style="fill:#323232;" d="M181,36.5v27h-6v-27H181 M184,33.5h-12v33h12V33.5L184,33.5z"/>
</g>
<g>
	<g>
		<path style="fill:#323232;" d="M390.268,45.5v9h-9v-9H390.268 M393.268,42.5h-15v15h15V42.5L393.268,42.5z"/>
	</g>
	<g>
		<path style="fill:#323232;" d="M414.5,45.5v9h-9v-9H414.5 M417.5,42.5h-15v15h15V42.5L417.5,42.5z"/>
	</g>
	<g>
		<path style="fill:#323232;" d="M438.732,45.5v9h-9v-9H438.732 M441.732,42.5h-15v15h15V42.5L441.732,42.5z"/>
	</g>
</g>
<g>
	<g>
		<path style="fill:#323232;" d="M290.5,35.872l13.5,7.836v12.548l-13.563,7.873L277,56.328v-12.62L290.5,35.872 M290.5,32.403
			L274,41.981v16.075l16.437,9.541L307,57.983V41.981L290.5,32.403L290.5,32.403z"/>
	</g>
</g>
<g>
	<g>
		<rect x="289" y="43" style="fill:#323232;" width="3" height="15"/>
	</g>
	<g>
		<rect x="283" y="49" style="fill:#323232;" width="15" height="3"/>
	</g>
</g>
<g style="display:none;">
	<g style="display:inline;">
		<path style="fill:#323232;" d="M537.953,27v15h-15V27H537.953 M540.953,24h-21v21h21V24L540.953,24z"/>
	</g>
	<g style="display:inline;">
		<g>
			<path style="fill:#323232;" d="M530.183,25.905L546.953,73h-33L530.183,25.905z M530.229,34.978L518.16,70h24.54L530.229,34.978z
				"/>
		</g>
	</g>
</g>
<g id="path_artist" style="display:none;">
	<g style="display:inline;">
		<path style="fill:none;stroke:#323232;stroke-width:3;stroke-miterlimit:10;" d="M515.615,64.5h28.77l-14.149-15.749L515.615,64.5
			z"/>
	</g>
	
		<ellipse style="display:inline;fill:none;stroke:#323232;stroke-width:3;stroke-miterlimit:10;" cx="530" cy="46.054" rx="8.092" ry="10.239"/>
</g>
<g>
	<g>
		<path style="fill:none;stroke:#323232;stroke-width:3;stroke-miterlimit:10;" d="M647.5,70.294V51.369l-10.36,9.308L647.5,70.294z
			"/>
	</g>
	<g>
		<path style="fill:none;stroke:#323232;stroke-width:3;stroke-miterlimit:10;" d="M663.5,67.294V48.369l-10.36,9.308L663.5,67.294z
			"/>
	</g>
	<polyline style="fill:none;stroke:#323232;stroke-width:3;stroke-miterlimit:10;" points="647.5,51 647.5,32.706 663.5,29.706 
		663.5,48 	"/>
</g>
<g>
	<path style="fill:#323232;" d="M783.5,36.5v27h-27v-27H783.5 M786.5,33.5h-33v33h33V33.5L786.5,33.5z"/>
</g>
<g>
	<path style="fill:#323232;" d="M770,43.353c3.665,0,6.647,2.982,6.647,6.647s-2.982,6.647-6.647,6.647s-6.647-2.982-6.647-6.647
		S766.335,43.353,770,43.353 M770,40.353c-5.328,0-9.647,4.319-9.647,9.647s4.319,9.647,9.647,9.647s9.647-4.319,9.647-9.647
		S775.328,40.353,770,40.353L770,40.353z"/>
</g>
<g id="old_shuffle">
	<path style="fill:#323232;" d="M28.355,132.663c6.719,0,10.179-2.98,13.843-8.253c3.785-5.448,8.076-11.624,16.471-11.624
		c0.851,0,1.541,0.69,1.541,1.541s-0.69,1.541-1.541,1.541c-6.784,0-10.26,5.003-13.94,10.3c-3.955,5.692-8.044,9.577-16.373,9.577"
		/>
	<g>
		<path style="fill:#323232;" d="M58.669,130.043c-4.825,0-7.976-2.693-10.725-6.263c-0.624,0.834-1.243,1.711-1.872,2.615
			c3.066,3.791,6.813,6.729,12.597,6.729c0.851,0,1.541-0.69,1.541-1.541S59.52,130.043,58.669,130.043z"/>
		<path style="fill:#323232;" d="M28.355,112.069c6.695,0,10.156,3.251,13.822,8.81c0.161,0.244,0.322,0.488,0.483,0.731
			c0.624-0.866,1.28-1.74,1.981-2.591c-3.92-5.944-8.009-10.032-16.286-10.032"/>
	</g>
	<g>
		<path style="fill:#323232;" d="M58,109.414v9.501l13.559-4.672L58,109.414z"/>
	</g>
	<g>
		<path style="fill:#323232;" d="M58,126.414v9.501l13.559-4.673L58,126.414z"/>
	</g>
</g>
<path style="fill:#323232;" d="M28.355,61.663c6.719,0,10.179-2.98,13.843-8.253c3.785-5.448,8.076-11.624,16.471-11.624
	c0.851,0,1.541,0.69,1.541,1.541c0,0.851-0.69,1.541-1.541,1.541c-6.784,0-10.26,5.003-13.94,10.3
	c-3.955,5.692-8.044,9.577-16.373,9.577"/>
<g>
	<path style="fill:#323232;" d="M58.669,59.043c-4.825,0-7.976-2.693-10.725-6.263c-0.624,0.834-1.243,1.711-1.872,2.615
		c3.066,3.791,6.813,6.729,12.597,6.729c0.851,0,1.541-0.69,1.541-1.541C60.209,59.733,59.52,59.043,58.669,59.043z"/>
	<path style="fill:#323232;" d="M28.355,41.069c6.695,0,10.156,3.251,13.822,8.81c0.161,0.244,0.322,0.488,0.483,0.731
		c0.624-0.866,1.28-1.74,1.981-2.591c-3.92-5.944-8.009-10.032-16.286-10.032"/>
</g>
<g id="hitler" style="display:none;">
	<g style="display:inline;">
		<g>
			<path style="fill:#323232;" d="M548.487,68h-37.05l18.828-20.281L548.487,68z M518.602,65h22.877l-11.252-12.523L518.602,65z"/>
		</g>
	</g>
	<path style="display:inline;fill:#FFFFFF;" d="M530.002,64.109c-7.163,0-12.99-6.83-12.99-15.226
		c0-8.396,5.827-15.226,12.99-15.226c7.162,0,12.989,6.831,12.989,15.226C542.991,57.279,537.164,64.109,530.002,64.109z
		 M530.002,42.782c-1.829,0-3.866,2.506-3.866,6.102c0,3.596,2.037,6.102,3.866,6.102c1.828,0,3.865-2.506,3.865-6.102
		C533.867,45.288,531.83,42.782,530.002,42.782z"/>
	<path style="display:inline;fill:#323232;" d="M530.002,61.11c-5.509,0-9.99-5.485-9.99-12.226s4.481-12.226,9.99-12.226
		c5.509,0,9.99,5.485,9.99,12.226S535.51,61.11,530.002,61.11z M530.002,39.782c-3.786,0-6.865,4.083-6.865,9.101
		s3.08,9.102,6.865,9.102c3.786,0,6.865-4.084,6.865-9.102S533.787,39.782,530.002,39.782z"/>
</g>
<g id="teddy" style="display:none;">
	<g style="display:inline;">
		<g>
			<path style="fill:#323232;" d="M548.487,68h-37.05l18.828-20.281L548.487,68z M518.602,65h22.877l-11.252-12.523L518.602,65z"/>
		</g>
	</g>
	<path style="display:inline;fill:#FFFFFF;" d="M530.002,64.109c-7.163,0-12.99-6.83-12.99-15.226
		c0-8.396,5.827-15.226,12.99-15.226c7.162,0,12.989,6.831,12.989,15.226C542.991,57.279,537.164,64.109,530.002,64.109z
		 M529.962,38.003c-1.829,0-8.396,7.285-8.396,10.88c0,3.596,4.515,10.852,8.396,10.963c4.232,0.12,8.424-7.368,8.328-10.963
		C538.119,42.5,531.791,38.003,529.962,38.003z"/>
	<path style="display:inline;fill:#323232;" d="M530.002,61.11c-5.509,0-9.99-5.485-9.99-12.226s4.481-12.226,9.99-12.226
		c5.509,0,9.99,5.485,9.99,12.226S535.51,61.11,530.002,61.11z M530.002,39.782c-3.786,0-6.865,4.083-6.865,9.101
		s3.08,9.102,6.865,9.102c3.786,0,6.865-4.084,6.865-9.102S533.787,39.782,530.002,39.782z"/>
</g>
<g style="display:none;">
	<g style="display:inline;">
		
			<rect x="44.951" y="171.267" transform="matrix(0.5578 -0.83 0.83 0.5578 -135.4055 121.6515)" style="fill:#323232;" width="3.024" height="33.264"/>
		<g>
			<path style="fill:#323232;" d="M68.956,203.326l-8.717-11.532l-5.341,7.949L68.956,203.326z"/>
		</g>
	</g>
	<g style="display:inline;">
		
			<rect x="28.831" y="190.284" transform="matrix(-0.83 0.5577 -0.5577 -0.83 192.5567 326.9059)" style="fill:#323232;" width="35.264" height="5.024"/>
		<path style="fill:#FFFFFF;" d="M59.424,182.264l1.687,2.509l-27.609,18.553l-1.687-2.51L59.424,182.264 M59.969,179.489
			l-1.66,1.115l-27.609,18.552l-1.66,1.116l1.116,1.66l1.687,2.51l1.116,1.66l1.66-1.115l27.609-18.553l1.66-1.116l-1.116-1.66
			l-1.687-2.509L59.969,179.489L59.969,179.489z"/>
	</g>
	<g style="display:inline;">
		
			<rect x="44.951" y="176.164" transform="matrix(0.5578 0.83 -0.83 0.5578 180.5611 46.6911)" style="fill:#323232;" width="3.024" height="33.264"/>
		<g>
			<path style="fill:#323232;" d="M54.898,180.951l5.341,7.949l8.717-11.532L54.898,180.951z"/>
		</g>
	</g>
</g>
<g>
	<path style="fill:none;stroke:#323232;stroke-width:3;stroke-miterlimit:10;" d="M54.667,37.426l5.472,5.393L56.333,50"/>
</g>
<g>
	<path style="fill:none;stroke:#323232;stroke-width:3;stroke-miterlimit:10;" d="M56.426,54.463l3.712,6.08l-5.472,5.679"/>
</g>
<g id="user">
	<path style="fill:#323232;" d="M540.016,58.57c-0.633,0.898-1.361,1.697-2.152,2.405L541.479,65h-22.877l3.647-3.929
		c-0.797-0.698-1.527-1.492-2.169-2.381L511.438,68h37.05L540.016,58.57z"/>
	<path style="fill:#323232;" d="M530.002,61.11c5.509,0,9.99-5.485,9.99-12.226s-4.481-12.226-9.99-12.226
		c-5.509,0-9.99,5.485-9.99,12.226S524.493,61.11,530.002,61.11z M526.39,56.61l3.837-4.133l3.576,3.98
		c-1.089,0.964-2.396,1.529-3.802,1.529C528.676,57.985,527.441,57.476,526.39,56.61z M530.002,39.782
		c3.786,0,6.865,4.083,6.865,9.101c0,1.824-0.411,3.521-1.11,4.947l-5.49-6.111l-5.898,6.353c-0.774-1.473-1.232-3.26-1.232-5.188
		C523.136,43.865,526.216,39.782,530.002,39.782z"/>
</g>
<g>
	<g>
		<g>
			<path style="fill:#323232;" d="M889.5,36.958l12.5,7.205v11.583l-12.559,7.24L877,55.815V44.164L889.5,36.958 M889.5,33.473
				L874,42.453v15.073l15.441,8.947L905,57.458V42.453L889.5,33.473L889.5,33.473z"/>
		</g>
	</g>
	<g>
		<g>
			<path style="fill:#323232;" d="M910.593,38.589"/>
		</g>
	</g>
	<g>
		<g>
			<polygon style="fill:#323232;" points="910,47 907,47 907,40.827 902.293,37.858 903.893,35.321 910,39.173 			"/>
		</g>
	</g>
	<g>
		<g>
			<path style="fill:#323232;stroke:#000000;stroke-miterlimit:10;" d="M879.051,61.136"/>
		</g>
	</g>
	<g>
		<g>
			
				<rect x="894.421" y="64.905" transform="matrix(0.5001 0.866 -0.866 0.5001 507.2967 -741.5726)" style="fill:#323232;" width="3" height="7.352"/>
		</g>
	</g>
	<g>
		<g>
			
				<rect x="897.604" y="32.652" transform="matrix(0.845 0.5348 -0.5348 0.845 157.6218 -475.5129)" style="fill:#323232;" width="3" height="3"/>
		</g>
	</g>
	<g>
		<g>
			
				<rect x="905.297" y="60.636" transform="matrix(-0.8742 0.4856 -0.4856 -0.8742 1729.6801 -323.8744)" style="fill:#323232;" width="3" height="3"/>
		</g>
	</g>
	<g>
		<g>
			<polygon style="fill:#323232;" points="874.106,64.642 868,60.789 868,53 871,53 871,59.135 875.708,62.104 			"/>
		</g>
	</g>
	<g>
		<g>
			<rect x="868.014" y="46.477" style="fill:#323232;" width="3.045" height="3.045"/>
		</g>
	</g>
	<g>
		<g>
			
				<rect x="881.961" y="27.145" transform="matrix(0.5013 0.8653 -0.8653 0.5013 468.092 -748.562)" style="fill:#323232;" width="3" height="9.335"/>
		</g>
	</g>
</g>
</svg>
