<?xml version="1.0" encoding="iso-8859-1"?>
<!-- Generator: Adobe Illustrator 18.0.0, SVG Export Plug-In . SVG Version: 6.00 Build 0)  -->
<!DOCTYPE svg PUBLIC "-//W3C//DTD SVG 1.1//EN" "http://www.w3.org/Graphics/SVG/1.1/DTD/svg11.dtd">
<svg version="1.1" id="Layer_1" xmlns="http://www.w3.org/2000/svg" xmlns:xlink="http://www.w3.org/1999/xlink" x="0px" y="0px"
	 viewBox="0 0 37.05 31.343" style="enable-background:new 0 0 37.05 31.343;" xml:space="preserve">
<g id="user">
	<path style="fill:#323232;" d="M28.578,21.913c-0.633,0.898-1.361,1.697-2.152,2.405l3.616,4.024H7.164l3.647-3.929
		c-0.797-0.698-1.527-1.492-2.169-2.381L0,31.343h37.05L28.578,21.913z"/>
	<path style="fill:#323232;" d="M18.564,24.452c5.509,0,9.99-5.485,9.99-12.226S24.073,0,18.564,0c-5.509,0-9.99,5.485-9.99,12.226
		S13.055,24.452,18.564,24.452z M14.953,19.952l3.837-4.133l3.576,3.98c-1.089,0.964-2.396,1.529-3.802,1.529
		C17.238,21.328,16.003,20.819,14.953,19.952z M18.564,3.125c3.786,0,6.865,4.083,6.865,9.101c0,1.824-0.411,3.521-1.11,4.947
		l-5.49-6.111l-5.898,6.353c-0.774-1.473-1.232-3.26-1.232-5.188C11.699,7.208,14.778,3.125,18.564,3.125z"/>
</g>
</svg>
