<?xml version="1.0" encoding="iso-8859-1"?>
<!-- Generator: Adobe Illustrator 18.0.0, SVG Export Plug-In . SVG Version: 6.00 Build 0)  -->
<!DOCTYPE svg PUBLIC "-//W3C//DTD SVG 1.1//EN" "http://www.w3.org/Graphics/SVG/1.1/DTD/svg11.dtd">
<svg version="1.1" id="Layer_1" xmlns="http://www.w3.org/2000/svg" xmlns:xlink="http://www.w3.org/1999/xlink" x="0px" y="0px"
	 viewBox="0 0 53.919 37.333" style="enable-background:new 0 0 53.919 37.333;" xml:space="preserve">
<g>
	<g>
		<path style="fill:#323232;" d="M11.583,30.362L0,25.062V12.304L11.583,7.19V30.362z M3.072,22.941l5.44,2.343V12.222l-5.44,2.183
			V22.941z"/>
	</g>
	<g>
		<g>
			<path style="fill:#323232;" d="M29.936,37.333l-16-6.815V7.001l16-7.001V37.333z M16.936,28.535l10,4.259V4.587l-10,4.376V28.535
				z"/>
		</g>
	</g>
	<path style="fill:#323232;" d="M34.468,14.678c0.922,0,1.952,1.497,1.952,3.5c0,2.003-1.03,3.5-1.952,3.5h-1.279l2.136,2.9
		c2.354-0.519,4.095-3.141,4.095-6.4c0-2.95-1.425-5.381-3.441-6.202l-1.99,2.702H34.468z"/>
	<path style="fill:#323232;" d="M38.742,9.678c2.93,0,5.404,3.893,5.404,8.5s-2.475,8.5-5.404,8.5h-1.871l2.194,2.978
		c4.556-0.227,8.081-5.18,8.081-11.478c0-5.952-3.147-10.703-7.337-11.402l-2.137,2.902H38.742z"/>
	<path style="fill:#323232;" d="M42.016,4.678c4.884,0,8.856,6.056,8.856,13.5c0,7.444-3.973,13.5-8.856,13.5h-1.08v0.265
		l1.884,2.685c6.206-0.517,11.098-7.687,11.098-16.45c0-8.414-4.575-15.364-10.43-16.364l-2.133,2.864H42.016z"/>
</g>
</svg>
