<?xml version="1.0" encoding="utf-8"?>
<!-- Generator: Adobe Illustrator 18.1.0, SVG Export Plug-In . SVG Version: 6.00 Build 0)  -->
<!DOCTYPE svg PUBLIC "-//W3C//DTD SVG 1.1//EN" "http://www.w3.org/Graphics/SVG/1.1/DTD/svg11.dtd">
<svg version="1.1" id="Layer_1" xmlns="http://www.w3.org/2000/svg" xmlns:xlink="http://www.w3.org/1999/xlink" x="0px" y="0px"
	 viewBox="0 0 474 500" enable-background="new 0 0 474 500" xml:space="preserve">
<g>
	<g>
		<g>
			<path d="M207,196l-44.3,109h12.4l12.8-32h47.2l13,32h12.6l-44-109H207z M211.4,212.5l11.7,29.5h-23.3L211.4,212.5z M191.9,262
				l4-10h31.3l4,10H191.9z"/>
		</g>
		<g>
			<polygon points="289.5,288.4 252.6,196 239.9,196 284.2,305 294,305 338.6,196 326.1,196 			"/>
		</g>
		<g>
			<polygon points="358,295 358,273 407,273 407,262 358,262 358,252 407,252 407,242 358,242 358,206 411,206 411,196 347,196 
				347,305 414,305 414,295 			"/>
		</g>
		<g>
			<polygon points="183.9,196 183.9,196 171.4,196 134.8,288.6 124.3,262.4 124.3,262.4 122.4,257.4 147.5,196 134.9,196 
				116.5,242.6 97.9,196 85.2,196 110.4,258.1 108.8,262.4 108.8,262.4 98.4,288.6 61.4,196 48.8,196 48.8,196 48.8,196 93.1,305 
				102.8,305 116.2,272.3 129.5,305 139.3,305 183.9,196 			"/>
		</g>
	</g>
	<g>
		<path d="M237.5,32L443,150.5v197.9L236.7,467.2L32,349.2V150.5L237.5,32 M237.5,20.4L22,144.6v210.4l214.7,123.8L453,354.2V144.6
			L237.5,20.4L237.5,20.4z"/>
	</g>
	<g>
		<polygon points="473,230 463,230 463,140.2 462.8,132.5 387.7,89.2 392.8,80.4 472.8,126.6 473,140.2 		"/>
	</g>
	<g>
		<polygon points="81.5,417.9 1.4,371.7 1,358 1,269 11,269 11,357.9 11.3,365.8 86.5,409.2 		"/>
	</g>
	<g>
		<rect x="285.5" y="415.8" transform="matrix(0.5 0.866 -0.866 0.5 550.8484 -17.4264)" width="10.1" height="105.1"/>
	</g>
	<g>
		<rect x="178.8" y="-20.9" transform="matrix(0.5 0.866 -0.866 0.5 119.3522 -143.413)" width="10.1" height="105.1"/>
	</g>
	<g>
		<g>
			<rect x="371.1" y="71" transform="matrix(0.5 -0.866 0.866 0.5 122.2331 363.7605)" width="10.1" height="10.1"/>
		</g>
	</g>
	<g>
		<g>
			<rect x="1" y="243" width="10" height="10"/>
		</g>
	</g>
	<g>
		<g>
			<rect x="445" y="372.2" transform="matrix(-0.5 -0.866 0.866 -0.5 348.4117 955.6985)" width="10.1" height="10.1"/>
		</g>
	</g>
</g>
</svg>
